<mxfile host="app.diagrams.net" agent="Mozilla/5.0 (Windows NT 10.0; Win64; x64) AppleWebKit/537.36 (KHTML, like Gecko) Chrome/132.0.0.0 Safari/537.36" version="26.0.10">
  <diagram name="Página-1" id="Fa0pBficoDW8_0hbfPrk">
    <mxGraphModel dx="1491" dy="1747" grid="1" gridSize="10" guides="1" tooltips="1" connect="1" arrows="1" fold="1" page="1" pageScale="1" pageWidth="827" pageHeight="1169" math="0" shadow="0">
      <root>
        <mxCell id="0" />
        <mxCell id="1" parent="0" />
        <mxCell id="alecqfUQLZcdRN8JKTTm-1" value="" style="endArrow=open;html=1;rounded=0;strokeColor=default;startArrow=diamond;startFill=1;endFill=0;" edge="1" parent="1">
          <mxGeometry width="50" height="50" relative="1" as="geometry">
            <mxPoint x="-600" y="240" as="sourcePoint" />
            <mxPoint x="-520" y="240" as="targetPoint" />
          </mxGeometry>
        </mxCell>
        <mxCell id="alecqfUQLZcdRN8JKTTm-2" value="" style="endArrow=open;html=1;rounded=0;strokeColor=default;startArrow=diamond;startFill=0;endFill=0;" edge="1" parent="1">
          <mxGeometry width="50" height="50" relative="1" as="geometry">
            <mxPoint x="-600" y="280" as="sourcePoint" />
            <mxPoint x="-520" y="280" as="targetPoint" />
          </mxGeometry>
        </mxCell>
        <mxCell id="alecqfUQLZcdRN8JKTTm-3" value="" style="endArrow=block;html=1;rounded=0;endFill=0;" edge="1" parent="1">
          <mxGeometry width="50" height="50" relative="1" as="geometry">
            <mxPoint x="-600" y="200" as="sourcePoint" />
            <mxPoint x="-520" y="200" as="targetPoint" />
          </mxGeometry>
        </mxCell>
        <mxCell id="alecqfUQLZcdRN8JKTTm-4" value="" style="endArrow=none;html=1;rounded=0;endFill=0;startFill=0;" edge="1" parent="1">
          <mxGeometry width="50" height="50" relative="1" as="geometry">
            <mxPoint x="-600" y="160" as="sourcePoint" />
            <mxPoint x="-520" y="160" as="targetPoint" />
          </mxGeometry>
        </mxCell>
        <mxCell id="alecqfUQLZcdRN8JKTTm-5" value="Agragação" style="text;html=1;align=center;verticalAlign=middle;resizable=0;points=[];autosize=1;strokeColor=none;fillColor=none;" vertex="1" parent="1">
          <mxGeometry x="-595" y="280" width="80" height="30" as="geometry" />
        </mxCell>
        <mxCell id="alecqfUQLZcdRN8JKTTm-6" value="Herança" style="text;html=1;align=center;verticalAlign=middle;resizable=0;points=[];autosize=1;strokeColor=none;fillColor=none;" vertex="1" parent="1">
          <mxGeometry x="-595" y="200" width="70" height="30" as="geometry" />
        </mxCell>
        <mxCell id="alecqfUQLZcdRN8JKTTm-7" value="Composição" style="text;html=1;align=center;verticalAlign=middle;resizable=0;points=[];autosize=1;strokeColor=none;fillColor=none;" vertex="1" parent="1">
          <mxGeometry x="-605" y="240" width="90" height="30" as="geometry" />
        </mxCell>
        <mxCell id="alecqfUQLZcdRN8JKTTm-8" value="Associação" style="text;html=1;align=center;verticalAlign=middle;resizable=0;points=[];autosize=1;strokeColor=none;fillColor=none;" vertex="1" parent="1">
          <mxGeometry x="-600" y="160" width="80" height="30" as="geometry" />
        </mxCell>
        <mxCell id="alecqfUQLZcdRN8JKTTm-9" value="Classname" style="swimlane;fontStyle=0;childLayout=stackLayout;horizontal=1;startSize=30;horizontalStack=0;resizeParent=1;resizeParentMax=0;resizeLast=0;collapsible=1;marginBottom=0;whiteSpace=wrap;html=1;fillColor=#d5e8d4;strokeColor=#82b366;" vertex="1" parent="1">
          <mxGeometry x="-478" y="160" width="130" height="90" as="geometry" />
        </mxCell>
        <mxCell id="alecqfUQLZcdRN8JKTTm-10" value="field: type" style="text;align=left;verticalAlign=middle;spacingLeft=4;spacingRight=4;overflow=hidden;points=[[0,0.5],[1,0.5]];portConstraint=eastwest;rotatable=0;whiteSpace=wrap;html=1;strokeWidth=4;perimeterSpacing=1;" vertex="1" parent="alecqfUQLZcdRN8JKTTm-9">
          <mxGeometry y="30" width="130" height="30" as="geometry" />
        </mxCell>
        <mxCell id="alecqfUQLZcdRN8JKTTm-13" value="" style="endArrow=none;html=1;rounded=0;exitX=0.003;exitY=0.945;exitDx=0;exitDy=0;exitPerimeter=0;entryX=1.007;entryY=-0.002;entryDx=0;entryDy=0;entryPerimeter=0;" edge="1" parent="alecqfUQLZcdRN8JKTTm-9" source="alecqfUQLZcdRN8JKTTm-10">
          <mxGeometry width="50" height="50" relative="1" as="geometry">
            <mxPoint y="60.83999999999992" as="sourcePoint" />
            <mxPoint x="130.90999999999997" y="59.93999999999994" as="targetPoint" />
          </mxGeometry>
        </mxCell>
        <mxCell id="alecqfUQLZcdRN8JKTTm-12" value="method(type): type" style="text;strokeColor=none;fillColor=none;align=left;verticalAlign=middle;spacingLeft=4;spacingRight=4;overflow=hidden;points=[[0,0.5],[1,0.5]];portConstraint=eastwest;rotatable=0;whiteSpace=wrap;html=1;" vertex="1" parent="alecqfUQLZcdRN8JKTTm-9">
          <mxGeometry y="60" width="130" height="30" as="geometry" />
        </mxCell>
        <mxCell id="alecqfUQLZcdRN8JKTTm-21" value="entitiyManagers()" style="swimlane;fontStyle=0;childLayout=stackLayout;horizontal=1;startSize=30;horizontalStack=0;resizeParent=1;resizeParentMax=0;resizeLast=0;collapsible=1;marginBottom=0;whiteSpace=wrap;html=1;fillColor=#d5e8d4;strokeColor=#82b366;" vertex="1" parent="1">
          <mxGeometry x="-280" y="320" width="130" height="90" as="geometry" />
        </mxCell>
        <mxCell id="alecqfUQLZcdRN8JKTTm-22" value="permissão," style="text;align=left;verticalAlign=middle;spacingLeft=4;spacingRight=4;overflow=hidden;points=[[0,0.5],[1,0.5]];portConstraint=eastwest;rotatable=0;whiteSpace=wrap;html=1;strokeWidth=4;perimeterSpacing=1;" vertex="1" parent="alecqfUQLZcdRN8JKTTm-21">
          <mxGeometry y="30" width="130" height="30" as="geometry" />
        </mxCell>
        <mxCell id="alecqfUQLZcdRN8JKTTm-23" value="" style="endArrow=none;html=1;rounded=0;exitX=0.003;exitY=0.945;exitDx=0;exitDy=0;exitPerimeter=0;entryX=1.007;entryY=-0.002;entryDx=0;entryDy=0;entryPerimeter=0;" edge="1" parent="alecqfUQLZcdRN8JKTTm-21" source="alecqfUQLZcdRN8JKTTm-22">
          <mxGeometry width="50" height="50" relative="1" as="geometry">
            <mxPoint y="60.83999999999992" as="sourcePoint" />
            <mxPoint x="130.90999999999997" y="59.93999999999994" as="targetPoint" />
          </mxGeometry>
        </mxCell>
        <mxCell id="alecqfUQLZcdRN8JKTTm-24" value="method(type): type" style="text;strokeColor=none;fillColor=none;align=left;verticalAlign=middle;spacingLeft=4;spacingRight=4;overflow=hidden;points=[[0,0.5],[1,0.5]];portConstraint=eastwest;rotatable=0;whiteSpace=wrap;html=1;" vertex="1" parent="alecqfUQLZcdRN8JKTTm-21">
          <mxGeometry y="60" width="130" height="30" as="geometry" />
        </mxCell>
        <mxCell id="alecqfUQLZcdRN8JKTTm-43" value="" style="endArrow=open;html=1;rounded=0;strokeColor=default;startArrow=diamond;startFill=1;endFill=0;" edge="1" parent="1">
          <mxGeometry width="50" height="50" relative="1" as="geometry">
            <mxPoint x="-45" y="70" as="sourcePoint" />
            <mxPoint x="35" y="70" as="targetPoint" />
          </mxGeometry>
        </mxCell>
        <mxCell id="alecqfUQLZcdRN8JKTTm-44" value="" style="endArrow=open;html=1;rounded=0;strokeColor=default;startArrow=diamond;startFill=0;endFill=0;" edge="1" parent="1">
          <mxGeometry width="50" height="50" relative="1" as="geometry">
            <mxPoint x="-45" y="110" as="sourcePoint" />
            <mxPoint x="35" y="110" as="targetPoint" />
          </mxGeometry>
        </mxCell>
        <mxCell id="alecqfUQLZcdRN8JKTTm-45" value="" style="endArrow=block;html=1;rounded=0;endFill=0;" edge="1" parent="1">
          <mxGeometry width="50" height="50" relative="1" as="geometry">
            <mxPoint x="-45" y="30" as="sourcePoint" />
            <mxPoint x="35" y="30" as="targetPoint" />
          </mxGeometry>
        </mxCell>
        <mxCell id="alecqfUQLZcdRN8JKTTm-46" value="" style="endArrow=none;html=1;rounded=0;endFill=0;startFill=0;" edge="1" parent="1">
          <mxGeometry width="50" height="50" relative="1" as="geometry">
            <mxPoint x="-45" y="-10" as="sourcePoint" />
            <mxPoint x="35" y="-10" as="targetPoint" />
          </mxGeometry>
        </mxCell>
        <mxCell id="alecqfUQLZcdRN8JKTTm-47" value="Agragação" style="text;html=1;align=center;verticalAlign=middle;resizable=0;points=[];autosize=1;strokeColor=none;fillColor=none;" vertex="1" parent="1">
          <mxGeometry x="-40" y="110" width="80" height="30" as="geometry" />
        </mxCell>
        <mxCell id="alecqfUQLZcdRN8JKTTm-48" value="Herança" style="text;html=1;align=center;verticalAlign=middle;resizable=0;points=[];autosize=1;strokeColor=none;fillColor=none;" vertex="1" parent="1">
          <mxGeometry x="-110" y="40" width="70" height="30" as="geometry" />
        </mxCell>
        <mxCell id="alecqfUQLZcdRN8JKTTm-49" value="Composição" style="text;html=1;align=center;verticalAlign=middle;resizable=0;points=[];autosize=1;strokeColor=none;fillColor=none;" vertex="1" parent="1">
          <mxGeometry x="-50" y="70" width="90" height="30" as="geometry" />
        </mxCell>
        <mxCell id="alecqfUQLZcdRN8JKTTm-50" value="Associação" style="text;html=1;align=center;verticalAlign=middle;resizable=0;points=[];autosize=1;strokeColor=none;fillColor=none;" vertex="1" parent="1">
          <mxGeometry x="-45" y="-10" width="80" height="30" as="geometry" />
        </mxCell>
        <mxCell id="alecqfUQLZcdRN8JKTTm-51" value="CommonUser()" style="swimlane;fontStyle=0;childLayout=stackLayout;horizontal=1;startSize=30;horizontalStack=0;resizeParent=1;resizeParentMax=0;resizeLast=0;collapsible=1;marginBottom=0;whiteSpace=wrap;html=1;fillColor=#d5e8d4;strokeColor=#82b366;" vertex="1" parent="1">
          <mxGeometry x="-80" y="150" width="150" height="180" as="geometry" />
        </mxCell>
        <mxCell id="alecqfUQLZcdRN8JKTTm-52" value="idade, rm, curso, turno" style="text;align=left;verticalAlign=middle;spacingLeft=4;spacingRight=4;overflow=hidden;points=[[0,0.5],[1,0.5]];portConstraint=eastwest;rotatable=0;whiteSpace=wrap;html=1;strokeWidth=4;perimeterSpacing=1;" vertex="1" parent="alecqfUQLZcdRN8JKTTm-51">
          <mxGeometry y="30" width="150" height="30" as="geometry" />
        </mxCell>
        <mxCell id="alecqfUQLZcdRN8JKTTm-53" value="" style="endArrow=none;html=1;rounded=0;exitX=0.003;exitY=0.945;exitDx=0;exitDy=0;exitPerimeter=0;entryX=0.998;entryY=-0.004;entryDx=0;entryDy=0;entryPerimeter=0;" edge="1" parent="alecqfUQLZcdRN8JKTTm-51" source="alecqfUQLZcdRN8JKTTm-52" target="alecqfUQLZcdRN8JKTTm-54">
          <mxGeometry width="50" height="50" relative="1" as="geometry">
            <mxPoint y="60.83999999999992" as="sourcePoint" />
            <mxPoint x="130.90999999999997" y="59.93999999999994" as="targetPoint" />
          </mxGeometry>
        </mxCell>
        <mxCell id="alecqfUQLZcdRN8JKTTm-54" value="cadastrar, atualizar informações de cadastro, verificar RegistroMatricula, verificar turno, VerificarCadastro e DeletarDados" style="text;strokeColor=none;fillColor=none;align=left;verticalAlign=middle;spacingLeft=4;spacingRight=4;overflow=hidden;points=[[0,0.5],[1,0.5]];portConstraint=eastwest;rotatable=0;whiteSpace=wrap;html=1;" vertex="1" parent="alecqfUQLZcdRN8JKTTm-51">
          <mxGeometry y="60" width="150" height="120" as="geometry" />
        </mxCell>
        <mxCell id="alecqfUQLZcdRN8JKTTm-55" value="History()" style="swimlane;fontStyle=0;childLayout=stackLayout;horizontal=1;startSize=30;horizontalStack=0;resizeParent=1;resizeParentMax=0;resizeLast=0;collapsible=1;marginBottom=0;whiteSpace=wrap;html=1;fillColor=#d5e8d4;strokeColor=#82b366;" vertex="1" parent="1">
          <mxGeometry x="160" y="320" width="130" height="120" as="geometry" />
        </mxCell>
        <mxCell id="alecqfUQLZcdRN8JKTTm-56" value="Armazenamento, dados alterados" style="text;align=left;verticalAlign=middle;spacingLeft=4;spacingRight=4;overflow=hidden;points=[[0,0.5],[1,0.5]];portConstraint=eastwest;rotatable=0;whiteSpace=wrap;html=1;strokeWidth=4;perimeterSpacing=1;" vertex="1" parent="alecqfUQLZcdRN8JKTTm-55">
          <mxGeometry y="30" width="130" height="30" as="geometry" />
        </mxCell>
        <mxCell id="alecqfUQLZcdRN8JKTTm-57" value="" style="endArrow=none;html=1;rounded=0;exitX=0.003;exitY=0.945;exitDx=0;exitDy=0;exitPerimeter=0;entryX=1.007;entryY=-0.002;entryDx=0;entryDy=0;entryPerimeter=0;" edge="1" parent="alecqfUQLZcdRN8JKTTm-55" source="alecqfUQLZcdRN8JKTTm-56">
          <mxGeometry width="50" height="50" relative="1" as="geometry">
            <mxPoint y="60.83999999999992" as="sourcePoint" />
            <mxPoint x="130.90999999999997" y="59.93999999999994" as="targetPoint" />
          </mxGeometry>
        </mxCell>
        <mxCell id="alecqfUQLZcdRN8JKTTm-58" value="dados da matricula, registros de alunos, historico escolar" style="text;strokeColor=none;fillColor=none;align=left;verticalAlign=middle;spacingLeft=4;spacingRight=4;overflow=hidden;points=[[0,0.5],[1,0.5]];portConstraint=eastwest;rotatable=0;whiteSpace=wrap;html=1;" vertex="1" parent="alecqfUQLZcdRN8JKTTm-55">
          <mxGeometry y="60" width="130" height="60" as="geometry" />
        </mxCell>
        <mxCell id="alecqfUQLZcdRN8JKTTm-64" value="" style="endArrow=block;html=1;rounded=0;endFill=0;entryX=0.621;entryY=0.017;entryDx=0;entryDy=0;exitX=0;exitY=0.5;exitDx=0;exitDy=0;entryPerimeter=0;" edge="1" parent="1" source="alecqfUQLZcdRN8JKTTm-54" target="alecqfUQLZcdRN8JKTTm-21">
          <mxGeometry width="50" height="50" relative="1" as="geometry">
            <mxPoint x="-200" y="230" as="sourcePoint" />
            <mxPoint x="-120" y="230" as="targetPoint" />
            <Array as="points">
              <mxPoint x="-200" y="270" />
            </Array>
          </mxGeometry>
        </mxCell>
      </root>
    </mxGraphModel>
  </diagram>
</mxfile>
